<svg xmlns="http://www.w3.org/2000/svg" viewBox="0 0 1600 900">
  <defs>
    <linearGradient id="bg4" x1="0" y1="0" x2="1" y2="1">
      <stop offset="0" stop-color="#f4f4f5"/>
      <stop offset="1" stop-color="#e7e8ea"/>
    </linearGradient>
    <linearGradient id="card4" x1="0" y1="0" x2="0" y2="1">
      <stop offset="0" stop-color="#ffffff"/>
      <stop offset="1" stop-color="#eef0f2"/>
    </linearGradient>
    <linearGradient id="gline4" x1="0" y1="0" x2="1" y2="0">
      <stop offset="0" stop-color="#101013"/>
      <stop offset="1" stop-color="#9a9ca3"/>
    </linearGradient>
    <filter id="soft4" x="-20%" y="-20%" width="140%" height="140%">
      <feDropShadow dx="0" dy="14" stdDeviation="16" flood-color="#000" flood-opacity="0.10"/>
    </filter>
  </defs>
  <rect width="1600" height="900" fill="url(#bg4)"/>
  <g stroke="#d5d7db" stroke-width="1" opacity="0.6">
    <path d="M40 660 H1560 M40 720 H1560 M40 780 H1560"/>
  </g>
  <g transform="translate(880 210)" filter="url(#soft4)">
    <rect width="560" height="460" rx="24" fill="url(#card4)" stroke="#d3d5da" stroke-width="1.5"/>
  </g>
  <g transform="translate(925 250)">
    <g transform="translate(0 0)">
      <rect x="0" y="0" width="116" height="360" rx="18" fill="#ffffff" stroke="#cfd1d6" stroke-width="1.5"/>
      <rect x="10" y="14" width="96" height="122" rx="8" fill="#e4e5e7"/>
      <rect x="10" y="142" width="96" height="14" rx="7" fill="#e9eaec"/>
      <rect x="10" y="164" width="72" height="14" rx="7" fill="#e9eaec"/>
      <rect x="10" y="186" width="96" height="14" rx="7" fill="#e9eaec"/>
      <text x="0" y="386" font-family="Arial, monospace" font-size="15" fill="#71747b">375</text>
      <text x="0" y="410" font-family="Arial, sans-serif" font-size="14" fill="#8a8d93">iPhone SE</text>
    </g>
    <g transform="translate(150 0)">
      <rect x="0" y="0" width="116" height="360" rx="18" fill="#ffffff" stroke="#cfd1d6" stroke-width="1.5"/>
      <rect x="10" y="14" width="96" height="122" rx="8" fill="#e4e5e7"/>
      <rect x="10" y="142" width="96" height="14" rx="7" fill="#e9eaec"/>
      <rect x="10" y="164" width="72" height="14" rx="7" fill="#e9eaec"/>
      <rect x="10" y="186" width="96" height="14" rx="7" fill="#e9eaec"/>
      <text x="0" y="386" font-family="Arial, monospace" font-size="15" fill="#71747b">390</text>
      <text x="0" y="410" font-family="Arial, sans-serif" font-size="14" fill="#8a8d93">iPhone 14</text>
    </g>
    <g transform="translate(300 0)">
      <rect x="0" y="0" width="116" height="360" rx="18" fill="#ffffff" stroke="#cfd1d6" stroke-width="1.5"/>
      <rect x="10" y="14" width="96" height="122" rx="8" fill="#e4e5e7"/>
      <rect x="10" y="142" width="96" height="14" rx="7" fill="#e9eaec"/>
      <rect x="10" y="164" width="72" height="14" rx="7" fill="#e9eaec"/>
      <rect x="10" y="186" width="96" height="14" rx="7" fill="#e9eaec"/>
      <text x="0" y="386" font-family="Arial, monospace" font-size="15" fill="#71747b">414</text>
      <text x="0" y="410" font-family="Arial, sans-serif" font-size="14" fill="#8a8d93">Plus</text>
    </g>
    <text x="0" y="60" font-family="Arial, sans-serif" font-size="15" fill="#8a8d93">横向溢出 0 / 三视口实测</text>
    <rect x="0" y="286" width="470" height="26" rx="13" fill="#101013"/>
    <text x="18" y="305" font-family="Arial, monospace" font-size="15" fill="#ffffff">12726px → 4548px</text>
  </g>
  <text x="72" y="116" font-family="Arial, sans-serif" font-size="30" letter-spacing="6" fill="#3a3c40" font-weight="bold">RECORD / W-004</text>
  <text x="72" y="166" font-family="Arial, sans-serif" font-size="21" letter-spacing="3" fill="#71747b">RESPONSIVE PASS</text>
  <text x="72" y="236" font-family="Arial, Helvetica, sans-serif" font-size="76" font-weight="900" fill="#101013" letter-spacing="1">手机端布局优化</text>
  <text x="72" y="286" font-family="Arial, sans-serif" font-size="24" letter-spacing="4" fill="#71747b">MOBILE · BREAKPOINTS · GEOMETRY</text>
  <line x1="72" y1="330" x2="620" y2="330" stroke="url(#gline4)" stroke-width="3" opacity="0.8"/>
  <g fill="#101013">
    <rect x="72" y="360" width="14" height="14" rx="4"/><text x="98" y="372" font-family="Arial, sans-serif" font-size="19" fill="#3a3c40">画廊单列 16 屏 → 两列 6 屏</text>
    <rect x="72" y="392" width="14" height="14" rx="4"/><text x="98" y="404" font-family="Arial, sans-serif" font-size="19" fill="#3a3c40">顶栏收紧，不再挤压品牌</text>
    <rect x="72" y="424" width="14" height="14" rx="4"/><text x="98" y="436" font-family="Arial, sans-serif" font-size="19" fill="#3a3c40">吊牌改为点按开关灯</text>
  </g>
  <text x="72" y="812" font-family="Arial, Helvetica, sans-serif" font-size="300" font-weight="900" fill="#ffffff" stroke="#c7c9cd" stroke-width="3">004</text>
</svg>
